<?xml version="1.0" encoding="utf-8"?>
<!-- Generator: Adobe Illustrator 28.1.0, SVG Export Plug-In . SVG Version: 6.00 Build 0)  -->
<svg version="1.1" id="Ebene_1" xmlns="http://www.w3.org/2000/svg" xmlns:xlink="http://www.w3.org/1999/xlink" x="0px" y="0px"
	 viewBox="0 0 32.8 32.8" style="enable-background:new 0 0 32.8 32.8;" xml:space="preserve">
<style type="text/css">
	.st0{fill:none;stroke:#898888;stroke-width:2;stroke-linecap:round;stroke-linejoin:round;stroke-miterlimit:10;}
</style>
<g>
	<g>
		<g>
			<line class="st0" x1="20.1" y1="12.7" x2="20.1" y2="16.4"/>
			<g>
				<path class="st0" d="M20.1,16.4c0,2-1.7,3.7-3.7,3.7c-2,0-3.7-1.7-3.7-3.7c0-2,1.7-3.7,3.7-3.7C18.4,12.7,20.1,14.4,20.1,16.4z"
					/>
				<path class="st0" d="M24.6,16.4c0,4.9-4.5,4.9-4.5,0"/>
				<path class="st0" d="M19.6,24c-1,0.4-2.1,0.6-3.2,0.6c-1.1,0-2.2-0.2-3.2-0.6c-1-0.4-1.9-1-2.6-1.8c-0.7-0.7-1.3-1.6-1.8-2.6
					c-0.4-1-0.6-2.1-0.6-3.2c0-1.1,0.2-2.2,0.6-3.2c0.4-1,1-1.9,1.8-2.6c0.7-0.7,1.6-1.3,2.6-1.8s2.1-0.6,3.2-0.6
					c1.1,0,2.2,0.2,3.2,0.6c1,0.4,1.9,1,2.6,1.8c0.7,0.7,1.3,1.6,1.8,2.6c0.4,1,0.6,2.1,0.6,3.2"/>
			</g>
		</g>
	</g>
	<ellipse transform="matrix(0.2298 -0.9732 0.9732 0.2298 -3.3301 28.6008)" class="st0" cx="16.4" cy="16.4" rx="15.4" ry="15.4"/>
</g>
</svg>
